<svg width="17" height="17" viewBox="0 0 17 17" fill="none" xmlns="http://www.w3.org/2000/svg">
<path fill-rule="evenodd" clip-rule="evenodd" d="M8.9476 16.7763C13.2714 16.7763 16.7765 13.2712 16.7765 8.94737C16.7765 4.62356 13.2714 1.11842 8.9476 1.11842C4.62379 1.11842 1.11865 4.62356 1.11865 8.94737C1.11865 13.2712 4.62379 16.7763 8.9476 16.7763ZM11.7823 7.76727C12.0175 7.53208 12.0175 7.15078 11.7823 6.91559C11.5471 6.68041 11.1658 6.68041 10.9306 6.91559L8.14459 9.70163L6.96449 8.52153C6.72931 8.28635 6.348 8.28635 6.11281 8.52153C5.87763 8.75671 5.87763 9.13802 6.11281 9.37321L7.71875 10.9791C7.83169 11.0921 7.98487 11.1555 8.14459 11.1555C8.30431 11.1555 8.45749 11.0921 8.57043 10.9791L11.7823 7.76727Z" fill="#64CCC5"/>
</svg>
