<svg width="17" height="23" viewBox="0 0 17 23" fill="none" xmlns="http://www.w3.org/2000/svg">
<path fill-rule="evenodd" clip-rule="evenodd" d="M8.9476 19.4163C13.2714 19.4163 16.7765 15.9112 16.7765 11.5874C16.7765 7.26356 13.2714 3.75842 8.9476 3.75842C4.62379 3.75842 1.11865 7.26356 1.11865 11.5874C1.11865 15.9112 4.62379 19.4163 8.9476 19.4163ZM11.7823 10.4073C12.0175 10.1721 12.0175 9.79077 11.7823 9.55559C11.5471 9.32041 11.1658 9.32041 10.9306 9.55559L8.14459 12.3416L6.96449 11.1615C6.72931 10.9263 6.348 10.9263 6.11281 11.1615C5.87763 11.3967 5.87763 11.778 6.11281 12.0132L7.71875 13.6191C7.83169 13.7321 7.98487 13.7955 8.14459 13.7955C8.30431 13.7955 8.45749 13.7321 8.57043 13.6191L11.7823 10.4073Z" fill="#64CCC5"/>
</svg>
