<svg width="35" height="36" viewBox="0 0 35 36" fill="none" xmlns="http://www.w3.org/2000/svg">
<circle cx="17.5" cy="17.6345" r="17.5" fill="#FBFBFB"/>
<path d="M17.3318 25.0545H17.6678C18.2978 25.0545 18.6127 25.0545 18.8335 24.8941C18.9049 24.8423 18.9676 24.7796 19.0194 24.7082C19.1798 24.4874 19.1798 24.1725 19.1798 23.5425V18.7545H20.2298C20.8197 18.7545 21.1146 18.7545 21.3265 18.6129C21.4182 18.5517 21.497 18.4729 21.5582 18.3812C21.6998 18.1693 21.6998 17.8744 21.6998 17.2845C21.6998 16.6946 21.6998 16.3997 21.5582 16.1878C21.497 16.0961 21.4182 16.0174 21.3265 15.9561C21.1146 15.8145 20.8197 15.8145 20.2298 15.8145H19.1798V14.1345C19.1798 13.7431 19.1798 13.5474 19.2437 13.3931C19.329 13.1872 19.4925 13.0237 19.6984 12.9385C19.8527 12.8745 20.0484 12.8745 20.4398 12.8745C20.8312 12.8745 21.0269 12.8745 21.1813 12.8106C21.3871 12.7253 21.5506 12.5618 21.6359 12.356C21.6998 12.2016 21.6998 12.0059 21.6998 11.6145V11.2412C21.6998 10.8059 21.6998 10.5883 21.6211 10.4195C21.5376 10.2405 21.3938 10.0967 21.2148 10.0132C21.046 9.93451 20.8284 9.93451 20.3931 9.93451C18.8697 9.93451 18.108 9.93451 17.5173 10.21C16.8909 10.5021 16.3874 11.0056 16.0953 11.632C15.8198 12.2227 15.8198 12.9844 15.8198 14.5078V15.8145H14.7698C14.1799 15.8145 13.885 15.8145 13.6731 15.9561C13.5814 16.0174 13.5027 16.0961 13.4414 16.1878C13.2998 16.3997 13.2998 16.6946 13.2998 17.2845C13.2998 17.8744 13.2998 18.1693 13.4414 18.3812C13.5027 18.4729 13.5814 18.5517 13.6731 18.6129C13.885 18.7545 14.1799 18.7545 14.7698 18.7545H15.8198V23.5425C15.8198 24.1725 15.8198 24.4874 15.9802 24.7082C16.032 24.7796 16.0948 24.8423 16.1661 24.8941C16.3869 25.0545 16.7018 25.0545 17.3318 25.0545Z" stroke="#0C0C0C" stroke-width="1.05" stroke-linejoin="round"/>
</svg>
