<svg width="36" height="36" viewBox="0 0 36 36" fill="none" xmlns="http://www.w3.org/2000/svg">
<circle cx="17.7998" cy="17.6345" r="17.5" fill="#FBFBFB"/>
<path d="M23.4286 13.0445C23.4286 13.2899 23.2297 13.4888 22.9843 13.4888C22.7389 13.4888 22.54 13.2899 22.54 13.0445C22.54 12.7991 22.7389 12.6002 22.9843 12.6002C23.2297 12.6002 23.4286 12.7991 23.4286 13.0445Z" fill="#292556" stroke="#0C0C0C" stroke-width="0.888611"/>
<path d="M10.0996 16.3325C10.0996 13.6669 10.0996 12.334 10.7784 11.3997C10.9977 11.098 11.2631 10.8326 11.5648 10.6133C12.4991 9.93451 13.832 9.93451 16.4976 9.93451H19.6966C22.3623 9.93451 23.6951 9.93451 24.6294 10.6133C24.9312 10.8326 25.1965 11.098 25.4158 11.3997C26.0946 12.334 26.0946 13.6669 26.0946 16.3325V19.5315C26.0946 22.1972 26.0946 23.53 25.4158 24.4643C25.1965 24.7661 24.9312 25.0314 24.6294 25.2507C23.6951 25.9295 22.3623 25.9295 19.6966 25.9295H16.4976C13.832 25.9295 12.4991 25.9295 11.5648 25.2507C11.2631 25.0314 10.9977 24.7661 10.7784 24.4643C10.0996 23.53 10.0996 22.1972 10.0996 19.5315V16.3325Z" stroke="#0C0C0C" stroke-width="1.33292" stroke-linejoin="round"/>
<path d="M21.6516 17.932C21.6516 19.8951 20.0602 21.4865 18.0971 21.4865C16.134 21.4865 14.5427 19.8951 14.5427 17.932C14.5427 15.9689 16.134 14.3776 18.0971 14.3776C20.0602 14.3776 21.6516 15.9689 21.6516 17.932Z" stroke="#0C0C0C" stroke-width="1.33292" stroke-linejoin="round"/>
</svg>
