<svg width="36" height="36" viewBox="0 0 36 36" fill="none" xmlns="http://www.w3.org/2000/svg">
<circle cx="18.0996" cy="17.6345" r="17.5" fill="#FBFBFB"/>
<path d="M17.0109 16.8762V21.3096V19.4162C17.0109 18.0134 18.1481 16.8762 19.5508 16.8762V16.8762C20.3925 16.8762 21.0748 17.5585 21.0748 18.4002V21.3096M14.4248 16.8762V21.3096" stroke="#0C0C0C" stroke-width="1.05" stroke-linecap="round" stroke-linejoin="round"/>
<path d="M15.1633 14.6595C15.1633 15.0676 14.8325 15.3984 14.4244 15.3984C14.0164 15.3984 13.6855 15.0676 13.6855 14.6595C13.6855 14.2515 14.0164 13.9207 14.4244 13.9207C14.8325 13.9207 15.1633 14.2515 15.1633 14.6595Z" fill="#0C0C0C" fill-opacity="0.9" stroke="#0C0C0C" stroke-width="1.05"/>
<path d="M11.0996 16.6545C11.0996 14.438 11.0996 13.3298 11.6641 12.5529C11.8464 12.3019 12.067 12.0813 12.3179 11.899C13.0948 11.3345 14.2031 11.3345 16.4196 11.3345H19.0796C21.2961 11.3345 22.4044 11.3345 23.1813 11.899C23.4322 12.0813 23.6529 12.3019 23.8351 12.5529C24.3996 13.3298 24.3996 14.438 24.3996 16.6545V19.3145C24.3996 21.531 24.3996 22.6393 23.8351 23.4162C23.6529 23.6671 23.4322 23.8878 23.1813 24.0701C22.4044 24.6345 21.2961 24.6345 19.0796 24.6345H16.4196C14.2031 24.6345 13.0948 24.6345 12.3179 24.0701C12.067 23.8878 11.8464 23.6671 11.6641 23.4162C11.0996 22.6393 11.0996 21.531 11.0996 19.3145V16.6545Z" stroke="#0C0C0C" stroke-width="1.05" stroke-linejoin="round"/>
</svg>
